<?xml version="1.0" standalone="no"?>
<!DOCTYPE svg PUBLIC "-//W3C//DTD SVG 20010904//EN"
 "http://www.w3.org/TR/2001/REC-SVG-20010904/DTD/svg10.dtd">
<svg version="1.0" xmlns="http://www.w3.org/2000/svg"
 width="256.000000pt" height="256.000000pt" viewBox="0 0 256.000000 256.000000"
 preserveAspectRatio="xMidYMid meet">
<metadata>
Created by potrace 1.14, written by Peter Selinger 2001-2017
</metadata>
<g transform="translate(0.000000,256.000000) scale(0.100000,-0.100000)"
fill="#000000" stroke="none">
<path d="M1548 2025 c-2 -1 -23 -5 -48 -8 -351 -42 -643 -249 -644 -456 0
-164 117 -228 423 -232 147 -2 164 -20 39 -45 -374 -77 -646 -286 -650 -500
-1 -71 10 -101 57 -152 60 -67 147 -96 280 -93 192 3 426 71 577 167 109 70
157 143 177 273 12 81 6 87 -47 43 -191 -159 -408 -255 -609 -268 -185 -13
-280 42 -243 140 26 69 162 176 313 246 113 52 163 68 304 95 68 13 132 29
142 35 29 15 68 70 76 107 10 49 -8 53 -253 58 -435 7 -509 34 -394 145 29 28
85 64 142 92 157 77 285 111 415 109 115 -2 117 -4 41 -73 -74 -66 -86 -91
-28 -54 22 13 94 52 160 85 l122 61 1 48 c2 77 -2 126 -12 143 -14 26 -92 40
-219 38 -65 0 -120 -2 -122 -4z"/>
</g>
</svg>
